<svg xmlns="http://www.w3.org/2000/svg" version="1.1" xmlns:xlink="http://www.w3.org/1999/xlink" xmlns:svgjs="http://svgjs.dev/svgjs" width="100%" height="100%" viewBox="0 0 1000 600"><rect width="1000" height="600" x="0" y="0" fill="blue"/><g><circle r="166.66666666666666" cx="375.63183085123694" cy="397.85403296695154" fill="blue" transform="matrix(0.5981858145842063,0,0,0.5981858145842063,0,62.009346671293116)"/><path d="M270.342533906251 472.8540268372596Q255.8188640561367 472.8540268372596 244.33435248451718 467.71083590442237Q232.87906358865237 462.5676449715851 226.36240689534154 453.3917247845914Q219.8457502020307 444.2450272733524 219.61196879599265 432.26373021390197L219.61196879599265 432.26373021390197L240.03861914856788 432.26373021390197Q241.09063547573913 442.5793347553312 248.5424177932022 449.6219996122277Q256.02342278642004 456.66466446912415 270.342533906251 456.66466446912415L270.342533906251 456.66466446912415Q284.01874615947736 456.66466446912415 291.90886861326175 449.82655834251096Q299.7989910670462 442.98845221589784 299.7989910670462 432.26373021390197L299.7989910670462 432.26373021390197Q299.7989910670462 423.84759959653195 295.1525856220398 418.58751796067565Q290.53540285278814 413.32743632481936 283.580406023156 410.5805048038722Q276.65463186927855 407.8627959586798 264.8486708643567 404.706746977166L264.8486708643567 404.706746977166Q250.35422368999713 400.9077991290476 241.61664363932476 397.1088512809292Q232.87906358865237 393.3391261085655 226.68385632864386 385.24444492449777Q220.4594263928806 377.1205410646753 220.4594263928806 363.444328811449L220.4594263928806 363.444328811449Q220.4594263928806 351.4630317519985 226.56696562562485 342.19944353774054Q232.6745048583691 332.93585532348254 243.72067629366728 327.9095550936643Q254.76684772896544 322.8540321880913 269.0567361730417 322.8540321880913L269.0567361730417 322.8540321880913Q289.6879452559002 322.8540321880913 302.8381493455409 333.1696367295206Q315.9883534351816 343.45601859519513 317.68326862895753 360.52206123597324L317.68326862895753 360.52206123597324L296.6429420855324 360.52206123597324Q295.59092575836115 352.1059306186032 287.788471331841 345.6769419525566Q280.0152395810756 339.2479532865101 267.1864849247372 339.2479532865101L267.1864849247372 339.2479532865101Q255.17596518953206 339.2479532865101 247.60729216904997 345.4723832222733Q240.03861914856788 351.66759048228187 240.03861914856788 362.8306526205991L240.03861914856788 362.8306526205991Q240.03861914856788 370.80844310164775 244.56813389055523 375.86396600722077Q249.06842595678782 380.9194889127937 255.7019733531177 383.5495297307219Q262.33552074944754 386.17957054865 274.316817808898 389.5401782604471L274.316817808898 389.5401782604471Q288.84048765901224 393.5436848388488 297.69495841270367 397.43030071423146Q306.5202064906403 401.3169165896142 312.83230445366786 409.44082044943667Q319.14440241669536 417.5355016335044 319.14440241669536 431.41627261701404L319.14440241669536 431.41627261701404Q319.14440241669536 442.14099461900986 313.4752033202725 451.6091415635512Q307.7767815480949 461.0772885080925 296.6429420855324 466.9802690105534Q285.4798799472152 472.8540268372596 270.342533906251 472.8540268372596L270.342533906251 472.8540268372596ZM511.0204914224306 324.75350611215055L531.6517005052891 324.75350611215055L489.1619299578723 471.3928930495218L467.68326327812576 471.3928930495218L433.609623348079 353.36250567605776L398.2501856848229 471.3928930495218L377.0053004111145 471.597451779805L335.9766636514355 324.75350611215055L356.374091328256 324.75350611215055L388.372921279715 449.09599144864205L423.70313626721634 324.75350611215055L445.1818029469628 324.75350611215055L478.84632541644305 448.6576513123207L511.0204914224306 324.75350611215055Z " fill="white" transform="matrix(0.5981858145842063,0,0,0.5981858145842063,0,62.009346671293116)"/><path d="M705.1839871427787 338.7644597398366L644.9600623894996 338.7644597398366L644.9600623894996 388.2046484560804L698.819815055348 388.2046484560804L698.819815055348 404.1150786746571L644.9600623894996 404.1150786746571L644.9600623894996 455.0284553741025L705.1839871427787 455.0284553741025L705.1839871427787 470.9388855926792L625.6318360498954 470.9388855926792L625.6318360498954 322.8540295212599L705.1839871427787 322.8540295212599L705.1839871427787 338.7644597398366ZM730.4344291748532 385.02256241236506L815.083810689614 385.02256241236506L815.083810689614 401.3454852662382L730.4344291748532 401.3454852662382L730.4344291748532 385.02256241236506ZM987.1227033678903 354.67488995841325L1006.2152196301824 354.67488995841325L969.9453314837605 470.9388855926792L949.9983661912114 470.9388855926792L922.007794510382 378.65839032493443L893.9877590698887 470.9388855926792L874.0702575370038 470.9388855926792L837.5646593132695 354.67488995841325L857.3053782881703 354.67488995841325L884.0290083034462 452.2588619656836L912.8740290145325 354.67488995841325L932.6147479894332 354.67488995841325L960.8115659879107 452.4945720429958L987.1227033678903 354.67488995841325ZM1018.0891147747869 412.3943951402498Q1018.0891147747869 394.5688205435111 1025.3077358924743 381.103882377049Q1032.526357010162 367.6389442105868 1045.1368461463671 360.2140767752511Q1057.7767990422367 352.78920933991526 1073.2452728658527 352.78920933991526L1073.2452728658527 352.78920933991526Q1088.5369641314846 352.78920933991526 1099.7626565634805 359.35962774499416Q1111.0178127551403 365.93004615007305 1116.527535812314 375.8887969165155L1116.527535812314 375.8887969165155L1116.527535812314 354.67488995841325L1136.0620084695665 354.67488995841325L1136.0620084695665 470.9388855926792L1116.527535812314 470.9388855926792L1116.527535812314 449.31248599928045Q1110.8115664374923 459.47748308337117 1099.4680189668402 466.16575652710617Q1088.0950077365242 472.85402997084117 1073.0390265482044 472.85402997084117L1073.0390265482044 472.85402997084117Q1057.5705527245882 472.85402997084117 1045.048454867375 465.2229162178572Q1032.526357010162 457.56233870520913 1025.3077358924743 443.7732991824427Q1018.0891147747869 429.98425965967624 1018.0891147747869 412.3943951402498L1018.0891147747869 412.3943951402498ZM1116.527535812314 412.600641457898Q1116.527535812314 399.4598046477402 1111.2240590727884 389.677836439282Q1105.9205823332632 379.92533199048773 1096.9046718760696 374.7397102896183Q1087.8887614188761 369.5246248290848 1077.0755616221768 369.5246248290848L1077.0755616221768 369.5246248290848Q1066.2623618254775 369.5246248290848 1057.3348426472762 374.6218552509622Q1048.4367872287385 379.7190856728395 1043.1333104892133 389.47159012163377Q1037.8298337496876 399.224094570428 1037.8298337496876 412.3943951402498L1037.8298337496876 412.3943951402498Q1037.8298337496876 425.7414782680558 1043.1333104892133 435.61183775550614Q1048.4367872287385 445.4821972429565 1057.3348426472762 450.6678189438259Q1066.2623618254775 455.8829044043594 1077.0755616221768 455.8829044043594L1077.0755616221768 455.8829044043594Q1087.8887614188761 455.8829044043594 1096.9046718760696 450.6678189438259Q1105.9205823332632 445.4821972429565 1111.2240590727884 435.61183775550614Q1116.527535812314 425.7414782680558 1116.527535812314 412.600641457898L1116.527535812314 412.600641457898ZM1209.868726427964 472.85402997084117Q1196.521643300158 472.85402997084117 1185.914689821107 468.2871472229164Q1175.3077363420557 463.7202644749916 1169.1498105722733 455.55880304805504Q1162.9918848024909 447.3973416211185 1162.3436820898821 436.79038814206734L1162.3436820898821 436.79038814206734L1182.290647382431 436.79038814206734Q1183.145096412688 445.4821972429565 1190.4521088093675 450.9919203001303Q1197.7885849657114 456.50164335730403 1209.6624801103158 456.50164335730403L1209.6624801103158 456.50164335730403Q1220.6819262246631 456.50164335730403 1227.046098312094 451.6401230127389Q1233.4102703995245 446.7491389085098 1233.4102703995245 439.324271473174L1233.4102703995245 439.324271473174Q1233.4102703995245 431.69315772019 1226.6336056767977 427.98072400252215Q1219.8569409540705 424.26829028485423 1205.6259450363434 420.67371160584247L1205.6259450363434 420.67371160584247Q1192.691354543834 417.2559154848149 1184.5298931168973 413.77919184445926Q1176.3684316899607 410.27300444443955 1170.5346072764828 403.37848468305634Q1164.7007828630046 396.48396492167313 1164.7007828630046 385.2288087300133L1164.7007828630046 385.2288087300133Q1164.7007828630046 376.330753311476 1170.00425960253 368.9058858761402Q1175.3077363420557 361.4810184408044 1185.06024079085 357.1203820105278Q1194.812745239644 352.78920933991526 1207.3348430968572 352.78920933991526L1207.3348430968572 352.78920933991526Q1226.6336056767977 352.78920933991526 1238.5075008214021 362.5417137887095Q1250.3813959660065 372.29421823750374 1251.2358449962635 389.26534380398556L1251.2358449962635 389.26534380398556L1231.9370824163232 389.26534380398556Q1231.2888797037144 380.13157830813594 1224.6300700196434 374.6218552509622Q1217.9417965759085 369.1121321937884 1206.6866403842487 369.1121321937884L1206.6866403842487 369.1121321937884Q1196.2859332228459 369.1121321937884 1190.1574712127272 373.5611599030571Q1183.999545442945 378.01018761232575 1183.999545442945 385.2288087300133L1183.999545442945 385.2288087300133Q1183.999545442945 390.97424186449933 1187.7119791606128 394.6866755821672Q1191.4244128782807 398.3991092998351 1197.0519909741106 400.6088912746374Q1202.6501053102763 402.84813700910377 1212.6383198363828 405.58826665785864L1212.6383198363828 405.58826665785864Q1225.160417693596 409.00606277888625 1232.9977777642284 412.27654010159364Q1240.8351378348602 415.57648118396514 1246.4627159306901 422.14689958904404Q1252.0902940265205 428.7173179941229 1252.2965403441685 439.324271473174L1252.2965403441685 439.324271473174Q1252.2965403441685 448.87052960432004 1246.9930636046429 456.50164335730403Q1241.6895868651172 464.1622208699521 1232.0549374549792 468.4933935405646Q1222.3908242851771 472.85402997084117 1209.868726427964 472.85402997084117L1209.868726427964 472.85402997084117ZM1333.3513431799174 370.5853201769899L1303.0036707259655 370.5853201769899L1303.0036707259655 439.1180251555258Q1303.0036707259655 447.6035879387667 1306.5982494049772 451.1097753387864Q1310.2222918436532 454.6159627388061 1319.1203472621905 454.6159627388061L1319.1203472621905 454.6159627388061L1333.3513431799174 454.6159627388061L1333.3513431799174 470.9388855926792L1315.9382612184754 470.9388855926792Q1299.8215846822504 470.9388855926792 1291.7485145343057 463.5140181573434Q1283.7049081460254 456.0891507220076 1283.7049081460254 439.1180251555258L1283.7049081460254 439.1180251555258L1283.7049081460254 370.5853201769899L1268.6489269577055 370.5853201769899L1268.6489269577055 354.67488995841325L1283.7049081460254 354.67488995841325L1283.7049081460254 325.4173766120306L1303.0036707259655 325.4173766120306L1303.0036707259655 354.67488995841325L1333.3513431799174 354.67488995841325L1333.3513431799174 370.5853201769899ZM1462.7561756243413 408.35786006627757Q1462.7561756243413 413.8675831234513 1462.1079729117323 420.0255088932338L1462.1079729117323 420.0255088932338L1369.179274931379 420.0255088932338Q1370.239970279284 437.2028807773638 1380.9647787969911 446.86699394716595Q1391.6895873146987 456.50164335730403 1406.9518148206666 456.50164335730403L1406.9518148206666 456.50164335730403Q1419.47391267788 456.50164335730403 1427.8416204224645 450.6678189438259Q1436.2387919267135 444.8339945303478 1439.627124288077 435.08149008155357L1439.627124288077 435.08149008155357L1460.3990748512188 435.08149008155357Q1455.7438008243016 451.8463693303872 1441.7485149838872 462.33546777078215Q1427.7532291434723 472.85402997084117 1406.9518148206666 472.85402997084117L1406.9518148206666 472.85402997084117Q1390.3931818894812 472.85402997084117 1377.3702001179795 465.42916253550544Q1364.3177545868139 458.0042951001696 1356.8928871514781 444.30364685639523Q1349.4680197161424 430.6324623722849 1349.4680197161424 412.600641457898L1349.4680197161424 412.600641457898Q1349.4680197161424 394.5688205435111 1356.68664083383 380.98602733839283Q1363.8757981918534 367.4032341332746 1376.928243723019 360.09622173659494Q1389.9806892541847 352.78920933991526 1406.9518148206666 352.78920933991526L1406.9518148206666 352.78920933991526Q1423.510447751852 352.78920933991526 1436.2387919267135 359.97836669793884Q1448.9671361015749 367.1969878156264 1455.8616558629578 379.83694071149563Q1462.7561756243413 392.4474298477009 1462.7561756243413 408.35786006627757L1462.7561756243413 408.35786006627757ZM1442.8092103317922 404.32132499230534Q1442.8092103317922 393.3018788779578 1437.918226227563 385.34666376866943Q1433.056705882998 377.39144865938107 1424.6595343787494 373.23705854675273Q1416.2918266341644 369.1121321937884 1406.0973657904096 369.1121321937884L1406.0973657904096 369.1121321937884Q1391.4538772373862 369.1121321937884 1381.1710251146396 378.4521440072862Q1370.888172991893 387.792155820784 1369.4149850086915 404.32132499230534L1369.4149850086915 404.32132499230534L1442.8092103317922 404.32132499230534Z " fill="white" transform="matrix(0.5981858145842063,0,0,0.5981858145842063,0,62.009346671293116)"/></g></svg>